PathFileType	4	(X/Y/Z)	Kaydara	
DataRate	CameraRate	NumFrames	NumMarkers	Units	OrigDataRate	OrigDataStartFrame	OrigNumFrames	
240.00	240.00	4	72	mm	240.00	180	359	
Frame#	Time	Hips			RightUpLeg			RightLeg			RightFoot			RightFoot_End			LeftUpLeg			LeftLeg			LeftFoot			LeftFoot_End			Spine			Spine1			Spine2			Spine3			Neck			Head			Head_End			RightShoulder			RightArm			RightForeArm			RightHand			RightHandThumb1			RightHandThumb2			RightHandThumb3			RightHandThumb3_End			RightInHandIndex			RightHandIndex1			RightHandIndex2			RightHandIndex3			RightHandIndex3_End			RightInHandMiddle			RightHandMiddle1			RightHandMiddle2			RightHandMiddle3			RightHandMiddle3_End			RightInHandRing			RightHandRing1			RightHandRing2			RightHandRing3			RightHandRing3_End			RightInHandPinky			RightHandPinky1			RightHandPinky2			RightHandPinky3			RightHandPinky3_End			LeftShoulder			LeftArm			LeftForeArm			LeftHand			LeftHandThumb1			LeftHandThumb2			LeftHandThumb3			LeftHandThumb3_End			LeftInHandIndex			LeftHandIndex1			LeftHandIndex2			LeftHandIndex3			LeftHandIndex3_End			LeftInHandMiddle			LeftHandMiddle1			LeftHandMiddle2			LeftHandMiddle3			LeftHandMiddle3_End			LeftInHandRing			LeftHandRing1			LeftHandRing2			LeftHandRing3			LeftHandRing3_End			LeftInHandPinky			LeftHandPinky1			LeftHandPinky2			LeftHandPinky3			LeftHandPinky3_End			
		X1	Y1	Z1	X2	Y2	Z2	X3	Y3	Z3	X4	Y4	Z4	X5	Y5	Z5	X6	Y6	Z6	X7	Y7	Z7	X8	Y8	Z8	X9	Y9	Z9	X10	Y10	Z10	X11	Y11	Z11	X12	Y12	Z12	X13	Y13	Z13	X14	Y14	Z14	X15	Y15	Z15	X16	Y16	Z16	X17	Y17	Z17	X18	Y18	Z18	X19	Y19	Z19	X20	Y20	Z20	X21	Y21	Z21	X22	Y22	Z22	X23	Y23	Z23	X24	Y24	Z24	X25	Y25	Z25	X26	Y26	Z26	X27	Y27	Z27	X28	Y28	Z28	X29	Y29	Z29	X30	Y30	Z30	X31	Y31	Z31	X32	Y32	Z32	X33	Y33	Z33	X34	Y34	Z34	X35	Y35	Z35	X36	Y36	Z36	X37	Y37	Z37	X38	Y38	Z38	X39	Y39	Z39	X40	Y40	Z40	X41	Y41	Z41	X42	Y42	Z42	X43	Y43	Z43	X44	Y44	Z44	X45	Y45	Z45	X46	Y46	Z46	X47	Y47	Z47	X48	Y48	Z48	X49	Y49	Z49	X50	Y50	Z50	X51	Y51	Z51	X52	Y52	Z52	X53	Y53	Z53	X54	Y54	Z54	X55	Y55	Z55	X56	Y56	Z56	X57	Y57	Z57	X58	Y58	Z58	X59	Y59	Z59	X60	Y60	Z60	X61	Y61	Z61	X62	Y62	Z62	X63	Y63	Z63	X64	Y64	Z64	X65	Y65	Z65	X66	Y66	Z66	X67	Y67	Z67	X68	Y68	Z68	X69	Y69	Z69	X70	Y70	Z70	X71	Y71	Z71	X72	Y72	Z72	

180	0.746	198.9409999999998	914.58397	126.699	255.70777999999973	898.89444	54.21162999999999	158.95227999999952	502.50032	-40.65973	140.1521299999995	110.73649000000002	-114.18724	-11.315740000000005	34.35422	-26.08594	156.48977000000014	904.0025	210.29588	64.52270000000044	502.5233400000001	286.23578	-8.323080000000118	79.00834000000002	380.42281	-130.1832599999998	-2.7258899999999997	257.9147600000001	132.19340999999986	1032.43012	80.36885	70.85971999999947	1089.93453	31.617630000000002	4.530899999999747	1143.1586799999998	-23.260229999999996	-61.73522000000048	1183.30483	-81.92006000000002	-133.80634999999984	1226.6171599999998	-142.82752	-201.28351999999995	1266.20936	-195.66405000000003	-341.7061699999995	1341.5637399999998	-202.25550000000007	-88.07194999999956	1217.1678499999998	-144.84046	-17.685389999999643	1222.93962	-252.21142	101.01698000000033	993.58659	-309.26472999999993	128.2487000000001	982.0286499999999	-566.80287	138.10645000000022	1017.81913	-581.5943500000001	126.29629999999997	1039.85939	-608.6314500000001	117.9386800000002	1051.4424	-629.8560600000001	110.85750000000007	1057.87707	-649.5998100000002	140.88760000000002	1008.31419	-591.4159400000001	149.51608000000033	1031.43958	-638.4582000000001	142.94887999999992	1043.7354799999998	-671.8598	131.4042100000006	1050.5687700000003	-687.38842	116.81544999999915	1055.6775900000002	-696.70885	139.6279199999999	997.0863400000001	-596.32688	147.3661000000002	1013.57008	-644.86663	139.99007999999958	1025.42611	-681.8106400000001	125.96111000000019	1032.92103	-700.7834599999999	109.94937000000027	1038.14679	-711.09745	138.6462700000002	988.5822800000001	-598.6142899999999	145.10504000000037	996.02711	-644.1546900000001	138.44791000000077	1004.73893	-676.7857300000001	124.79467999999997	1011.10703	-695.3151299999998	109.68217999999979	1015.6123900000001	-705.1212000000002	136.2525999999998	977.96487	-599.74384	141.13482999999997	978.31731	-642.2860899999998	135.41897999999946	982.7304100000001	-668.88871	125.27397999999994	986.13552	-682.6328900000001	111.7795699999997	989.41301	-691.45112	-131.84547999999995	1207.3156899999997	-99.16213	-189.89871999999923	1135.2366900000004	-11.68402	-28.15592000000015	1024.5973600000002	-188.69191	77.83208999999988	1003.0865799999999	-424.07529999999997	106.13194999999996	1031.1221	-427.24536000000006	142.58665999999994	1031.98987	-432.39883	167.15354000000025	1029.4819400000001	-439.08304999999996	186.9322400000001	1024.7287299999998	-447.30337	105.17476999999963	1024.71712	-439.59859000000006	146.57783000000018	1036.79168	-470.6179299999999	178.66737000000012	1033.553	-487.04218000000003	197.8716199999999	1026.7478	-489.49118	213.26389000000017	1017.88297	-486.28255000000007	101.6586900000002	1015.2787	-446.69239000000005	140.13921000000028	1021.95393	-480.78625	174.56115000000045	1017.1207999999999	-499.53731999999997	197.44524999999976	1008.2871700000001	-502.88971000000004	214.14856999999938	998.2843699999999	-499.57224999999994	98.0876500000004	1008.4025900000001	-450.9914299999999	129.38500999999997	1008.7093199999999	-485.5088199999999	158.71972000000005	1003.15732	-502.64499000000006	180.4387200000001	993.92525	-506.29957	195.9760499999993	984.1830200000002	-503.37979	93.01180000000022	999.3378399999999	-454.4267	118.49968999999965	994.37113	-488.47818000000007	140.81206999999995	987.8335599999998	-503.28573000000006	156.08428000000004	980.08781	-506.47650999999996	169.51994000000013	970.87545	-504.1922599999999
181	0.75	198.9409999999998	914.58397	126.699	255.6769000000004	898.8667700000001	54.19345	158.9357599999994	502.48815	-40.75728	140.1363999999994	110.72569999999999	-114.29236	-11.331520000000637	34.34143	-26.192859999999996	156.51641000000018	904.0272100000001	210.31253000000004	64.50135000000046	502.55124	286.21113	-8.328730000000178	79.02552000000001	380.3620700000001	-130.1796800000002	-2.72916	257.85848999999996	132.2136900000005	1032.4446700000003	80.37663	70.89296000000013	1089.96385	31.62655	4.575810000000274	1143.20355	-23.250319999999995	-61.68305999999939	1183.36392	-81.9086	-133.7449800000004	1226.69384	-142.81446000000003	-201.21208000000024	1266.30545	-195.64932	-341.60715000000073	1341.70411	-202.32125999999994	-88.01897000000008	1217.20673	-144.84023000000002	-17.67417000000023	1222.8519899999997	-252.24527000000003	100.14741999999933	993.02533	-309.2183	127.0885500000004	981.0043600000001	-566.7658	136.9380599999995	1016.7657699999997	-581.6328999999997	125.09913000000051	1038.76248	-608.6928600000001	116.71709999999985	1050.31102	-629.9266300000002	109.61183000000074	1056.7134100000003	-649.67222	139.70319999999992	1007.2427900000001	-591.44152	148.27674000000025	1030.2831100000003	-638.53553	141.66924000000017	1042.5226700000003	-671.9498700000001	130.10619000000042	1049.3324800000003	-687.4751400000001	115.5067199999994	1054.4296500000003	-696.78518	138.4334599999993	996.00677	-596.33114	146.11260999999922	1012.40312	-644.9098399999999	138.69146	1024.19687	-681.8647500000001	124.63977000000068	1031.6630700000003	-700.83207	108.61606000000029	1036.8759000000002	-711.13399	137.44609000000037	987.4990300000001	-598.6023699999998	143.84693999999945	994.86214	-644.16423	137.1493900000005	1003.51901	-676.80162	123.4736699999994	1009.8590500000001	-695.3240499999999	108.3496299999997	1014.3520800000001	-705.1179899999998	135.04755999999998	976.8804299999999	-599.7101700000001	139.8736000000008	977.1568999999998	-642.2594	134.1239399999995	981.5253	-668.86212	123.96183999999994	984.9096100000002	-682.59879	110.45680999999968	988.1759800000001	-691.40488	-131.7813299999998	1207.41941	-99.13724999999998	-189.82920000000013	1135.4269	-11.584390000000003	-28.49576999999954	1024.25398	-188.63154	77.17203999999947	1002.0556699999999	-424.0950400000001	105.50161000000026	1030.0514799999999	-427.3495300000001	141.95303999999942	1030.86588	-432.53488000000004	166.51148000000012	1028.3149900000003	-439.23383	186.2778900000003	1023.5210100000002	-447.46004	104.52684000000045	1023.6206999999999	-439.68797	145.91819000000032	1035.5797399999997	-470.76764000000003	177.99041000000034	1032.2681599999999	-487.21118	197.1847600000001	1025.4354400000002	-489.66113999999993	212.56942999999956	1016.55985	-486.44585000000006	100.99402000000009	1014.1708999999998	-446.75828	139.45406999999977	1020.7273000000001	-480.89826000000005	173.85491000000002	1015.8135200000002	-499.6670700000001	196.72602000000006	1006.94615	-503.01902000000007	213.42053000000033	996.9313099999999	-499.69350000000003	97.41150000000016	1007.2895700000001	-451.0393599999999	128.68069000000014	1007.48487	-485.58307999999994	157.9948199999999	1001.86161	-502.73124	179.70012999999926	992.5965000000001	-506.38355	195.22861000000012	982.8427099999999	-503.45531	92.32236000000012	998.2232299999998	-454.45067	117.77638000000024	993.15283	-488.5122	140.06896999999935	986.5572000000001	-503.32381000000004	155.32959000000028	978.7868599999999	-506.51026000000013	168.75648999999976	969.56398	-504.2169799999999
182	0.754	198.9409999999998	914.58397	126.699	255.64187000000038	898.83873	54.17213	158.91784999999982	502.47588	-40.86182000000001	140.11628999999994	110.71242	-114.39096	-11.3475499999995	34.32634000000001	-26.286	156.54769000000033	904.05223	210.33154999999996	64.4952800000001	502.57514	286.1789299999999	-8.314159999999902	79.03393999999999	380.27614	-130.1571899999999	-2.7362	257.77500000000003	132.23199000000022	1032.4594999999995	80.38800000000002	70.92284000000018	1089.9929	31.64014	4.6158699999996315	1143.2474599999998	-23.234630000000003	-61.63706000000002	1183.4212300000004	-81.89044	-133.69102999999996	1226.768	-142.79371	-201.14906999999948	1266.3985900000002	-195.6259	-341.51888000000054	1341.83832	-202.36485	-87.97392000000036	1217.2411699999998	-144.83396000000002	-17.68325999999979	1222.75445	-252.28129	99.22373000000061	992.4399599999999	-309.16837999999996	125.8719000000001	979.9035800000001	-566.7217999999999	135.7177499999998	1015.63041	-581.67421	123.85354000000007	1037.57723	-608.76359	115.44920000000002	1049.0862399999999	-630.01	108.32129999999961	1055.4515899999997	-649.75941	138.4661500000002	1006.0863099999998	-591.467	146.98905999999988	1029.0271299999997	-638.6187400000001	140.34388000000035	1041.20164	-672.0493599999998	128.76382000000012	1047.9849099999997	-687.57356	114.1545900000001	1053.0695100000003	-696.87517	137.18525000000045	994.8409299999998	-596.3321300000001	144.8090000000002	1011.1351699999999	-644.95389	137.34542000000056	1022.8570199999999	-681.92313	123.27257000000009	1030.29078	-700.88752	107.23786999999993	1035.48964	-711.1793999999998	136.19127000000026	986.32902	-598.5847799999999	142.5366899999999	993.5967299999998	-644.1697100000001	135.80090999999993	1002.1901700000001	-676.816	122.10411000000022	1008.4985099999999	-695.33368	106.9694300000001	1012.9782	-705.11728	133.78673000000072	975.70924	-599.6679200000001	138.5581400000001	975.89713	-642.22379	132.77615999999944	980.21396	-668.8279200000001	122.59785999999986	983.57476	-682.55837	109.08291999999983	986.8291100000001	-691.35371	-131.72317999999996	1207.5231100000005	-99.10367	-189.76609999999982	1135.62283	-11.47176	-28.874800000000505	1023.8880099999999	-188.56752	76.45498000000043	1000.9606199999998	-424.11259000000007	104.81764000000021	1028.91213	-427.45843	141.26537000000008	1029.66731	-432.67864000000003	165.8144199999997	1027.069	-439.39378	185.5671600000005	1022.2302200000001	-447.62657999999993	103.82339999999931	1022.4536599999999	-439.78085	145.20190999999977	1034.28628	-470.9259300000001	177.2548999999999	1030.89473	-487.3906400000001	196.4382000000005	1024.0315100000003	-489.84190000000007	211.8143399999999	1015.14364	-486.6196900000001	100.27199000000019	1012.9918600000001	-446.82574999999997	138.70946000000004	1019.4184699999998	-481.0158	173.08690000000024	1014.41624	-499.80411000000004	195.9435199999998	1005.51152	-503.15590000000003	212.6281199999994	995.48298	-499.82196	96.67672000000039	1006.10513	-451.08742000000007	127.91479000000072	1006.1789900000001	-485.6597600000001	157.20607000000018	1000.4776700000001	-502.82116	178.89609999999993	991.1760000000002	-506.47133	194.4146499999997	981.4090700000002	-503.53423	91.57280999999966	997.03738	-454.47281999999996	116.98935999999958	991.8542000000001	-488.54535	139.25998999999956	985.19505	-503.36157999999995	154.50768999999946	977.39757	-506.54357000000005	167.92476999999963	968.1627699999999	-504.24077999999986
183	0.758	198.9409999999998	914.58397	126.699	255.61072000000058	898.80309	54.155530000000006	158.89161000000058	502.46001000000007	-40.96582	140.0940299999993	110.6962	-114.49409999999999	-11.366269999999531	34.30562	-26.386959999999995	156.57261999999992	904.0845199999999	210.34824000000003	64.45008000000053	502.61773	286.16501999999997	-8.375009999999747	79.06591999999999	380.2023699999999	-130.20079000000078	-2.7180300000000006	257.69328	132.2611199999992	1032.47617	80.38848	70.96843999999965	1090.0231	31.635869999999997	4.676729999999225	1143.2915700000003	-23.243809999999996	-61.566029999999955	1183.47748	-81.90280999999999	-133.60752000000048	1226.83993	-142.80966999999998	-201.05250999999953	1266.48866	-195.64491	-341.4001500000004	1341.96514	-202.43390999999997	-87.89966999999979	1217.27131	-144.86170000000004	-17.664740000000165	1222.6451600000003	-252.35253000000003	98.32267000000047	991.84069	-309.13599	124.72487000000001	978.7100500000001	-566.6851199999999	134.57214999999997	1014.39516	-581.73589	122.68760999999995	1036.28254	-608.8644400000001	114.26428000000033	1047.74445	-630.1287800000001	107.11641000000054	1054.0656700000002	-649.8851399999999	137.30382999999983	1004.8258300000001	-591.50871	145.78318000000036	1027.6475199999998	-638.7260799999999	139.10493000000042	1039.7444	-672.1782900000001	127.51013000000057	1046.4962	-687.7052099999999	112.89261999999962	1051.56606	-697.00184	136.01115000000027	993.5693700000002	-596.345	143.58602999999948	1009.74141	-645.0151800000001	136.08494999999948	1021.3774899999999	-682.0039200000001	121.9936400000006	1028.77276	-700.96964	105.94955000000027	1033.95524	-711.2551500000001	135.00995000000057	985.0525599999999	-598.57581	141.3052600000001	992.20615	-644.1857199999998	134.5354299999999	1000.72392	-676.8447899999999	120.82009000000016	1006.99466	-695.3615200000002	105.67623000000003	1011.45874	-705.13806	132.59843	974.43147	-599.6303	137.31954000000042	974.5134699999999	-642.1921199999999	131.50837000000047	978.76881	-668.79979	121.3156199999994	982.1017499999999	-682.5263099999999	107.79201000000012	985.3420099999998	-691.31354	-131.63818000000083	1207.6275	-99.10541000000002	-189.67407000000003	1135.8249099999998	-11.38879	-29.246879999999692	1023.4965999999998	-188.53013999999996	75.74069000000054	999.7873300000001	-424.15058	104.13850999999977	1027.69115	-427.59466	140.58255000000008	1028.38281	-432.84929	165.12201000000005	1025.7333800000001	-439.57949	184.86074999999983	1020.8460899999999	-447.81722	103.1244200000001	1021.20192	-439.8992800000001	144.49118999999973	1032.89655	-471.112	176.52478000000065	1029.41816	-487.59635000000003	195.6964799999996	1022.52231	-490.0467699999999	211.06332999999995	1013.6218399999999	-486.81506	99.55378999999994	1011.7266299999999	-446.91628	137.9694099999997	1018.0113600000001	-481.1572300000001	172.32315999999992	1012.9130500000001	-499.96303	195.16457999999966	1003.96833	-503.31192	211.8384300000007	993.92569	-499.96667	95.94530000000032	1004.83373	-451.15675	127.15250000000015	1004.77459	-485.75698999999986	156.42061000000012	998.9884	-502.92953000000006	178.0946299999996	989.6475600000001	-506.57471999999996	193.60244000000057	979.86709	-503.62595	90.82596999999987	995.76418	-454.51392	116.20492999999988	990.45729	-488.59543	138.45317999999952	983.7290199999999	-503.41405999999995	153.68735000000015	975.90239	-506.5892600000001	167.09385999999995	966.6552699999999	-504.27431
